<svg width="48" height="48" viewBox="0 0 48 48" fill="none" xmlns="http://www.w3.org/2000/svg">
<path d="M0 10C0 4.47715 4.47715 0 10 0H38C43.5228 0 48 4.47715 48 10V38C48 43.5228 43.5228 48 38 48H10C4.47715 48 0 43.5228 0 38V10Z" fill="#02ABFF"/>
<path d="M8 28.0078C8.0625 27.7281 8.1125 27.444 8.19083 27.1696C8.46417 26.2147 8.95 25.4468 9.84333 25.0317C9.92667 24.9934 9.9825 24.8153 9.9925 24.6959C10.0758 23.7347 10.0575 22.7549 10.2275 21.8124C10.6442 19.4964 11.8283 17.6623 13.5317 16.2005C15.5833 14.4403 17.9633 13.5121 20.5242 13.0409C20.6908 13.0106 20.8575 12.9892 21.0183 12.9625L21.5058 12.8805C21.5367 12.0405 21.8142 11.3226 22.46 10.8068C22.877 10.466 23.3921 10.2912 23.9167 10.3124C25.1508 10.3561 25.9 11.197 26.19 12.8681L28.07 13.2012C28.3583 12.6899 28.5933 12.1617 28.9225 11.7127C29.88 10.4086 31.1483 9.67461 32.7067 9.6274C33.7342 9.59711 34.7783 9.55881 35.79 9.71648C37.9567 10.0505 39.6233 11.9434 39.9442 14.2639C39.9577 14.3261 39.9764 14.387 40 14.4457V15.8486C39.9483 16.0963 39.9042 16.3457 39.8433 16.5907C39.4567 18.1469 38.5933 19.3058 37.2758 20.079C37.205 20.1217 37.135 20.168 37.125 20.168C37.3067 21.0847 37.5183 21.955 37.6408 22.8404C37.7242 23.4639 37.6867 24.1062 37.7167 24.7396C37.7217 24.8411 37.7742 24.997 37.845 25.0308C38.8917 25.527 39.3825 26.4614 39.5883 27.5936C39.8233 28.8879 39.6717 30.1243 38.9292 31.2209C38.4333 31.9585 37.7392 32.3148 36.895 32.3388C36.4392 32.3504 35.9833 32.3388 35.5617 32.3388C35.4467 32.9927 35.395 33.6296 35.2192 34.2264C34.4925 36.7455 32.3025 38.4131 29.8117 38.3979C28.2917 38.389 26.7708 38.3881 25.25 38.3828C25.1357 38.3868 25.0212 38.3824 24.9075 38.3694C24.6763 38.3523 24.5 38.1413 24.51 37.8938C24.4915 37.6588 24.6456 37.4483 24.8633 37.411C24.9859 37.3871 25.1105 37.3776 25.235 37.3825C26.88 37.3825 28.5283 37.4395 30.1708 37.3646C32.6 37.2561 34.5232 35.131 34.5442 32.5321C34.5783 30.0949 34.5692 27.656 34.5442 25.2179C34.5283 23.6341 34.03 22.2133 33.1275 20.9555C33.0203 20.7933 32.844 20.6996 32.6583 20.7061C32.2424 20.6858 31.8281 20.7735 31.4508 20.9617C31.085 21.1461 30.7008 21.2993 30.3242 21.4508C29.8525 21.6387 29.5133 21.3884 29.505 20.854C29.4983 20.4192 29.5158 19.9845 29.4908 19.5516C29.4685 19.3846 29.4091 19.2258 29.3175 19.0884C29.23 18.9405 29.0733 18.8354 28.9967 18.6831C28.8025 18.2956 28.4967 18.2119 28.1183 18.2128C26.41 18.2128 24.7017 18.1994 22.9942 18.2039C21.7442 18.2039 20.4942 18.1763 19.2442 18.2538C16.3392 18.4319 13.7442 20.9671 13.2608 24.0438C13.1854 24.5148 13.1456 24.9914 13.1417 25.4691C13.13 27.762 13.1325 30.0558 13.1417 32.3495C13.1467 34.8526 14.7167 36.8667 17.0167 37.3121C17.3667 37.3674 17.7205 37.3897 18.0742 37.3789C19.595 37.3833 21.1158 37.3789 22.6367 37.3789C22.7093 37.3759 22.782 37.3792 22.8542 37.3887C23.1283 37.4332 23.2942 37.6381 23.2708 37.9143C23.2475 38.1904 23.0908 38.3668 22.825 38.373C22.2208 38.3855 21.6167 38.3837 21.0125 38.3837C19.8675 38.3837 18.72 38.4265 17.5767 38.3739C14.6042 38.2385 12.345 35.8013 12.205 32.6292C12.205 32.5401 12.1942 32.4564 12.1867 32.3371H11.1742C9.49833 32.3371 8.4925 31.4748 8.1225 29.7208L8 29.1436V28.0078ZM30.4283 20.3168C30.7225 20.1939 30.9892 20.1039 31.2375 19.9739C31.6328 19.774 32.0683 19.6822 32.505 19.7066C33.265 19.728 34.025 19.7137 34.785 19.7129C37.0142 19.7129 38.7208 18.121 39.035 15.7613C39.355 13.3562 37.905 11.099 35.6658 10.7088C34.6708 10.5307 33.6333 10.626 32.615 10.6322C32.2915 10.6452 31.9717 10.7106 31.6667 10.8264C28.6092 11.8766 27.7442 16.1711 30.1192 18.5183C30.3375 18.7339 30.445 18.9584 30.43 19.2737C30.4167 19.6051 30.4283 19.9391 30.4283 20.3168ZM23.3733 17.1991C23.3733 16.5987 23.3675 16.041 23.3775 15.4896C23.3775 15.2963 23.34 15.201 23.145 15.1405C22.617 14.9818 22.1668 14.6113 21.8883 14.1063C21.7858 13.9281 21.685 13.8738 21.4925 13.8987C19.2992 14.1891 17.2158 14.8412 15.3175 16.0758C13.4758 17.2757 12.0725 18.88 11.3658 21.1043C10.9825 22.3104 10.8883 23.5512 10.9492 24.8456C11.2992 24.8456 11.6308 24.8349 11.9608 24.8456C12.165 24.8554 12.2217 24.7698 12.245 24.5623C12.6 21.4321 14.1367 19.2105 16.7983 17.8814C17.8242 17.3692 18.9225 17.191 20.0483 17.1937C21.1442 17.2035 22.2367 17.2017 23.3733 17.2017V17.1991ZM12.1758 31.3091V25.8539C11.7217 25.8539 11.2867 25.861 10.8517 25.8539C10.1667 25.8406 9.65833 26.171 9.35167 26.8035C8.76833 28.0016 8.775 29.2202 9.37 30.4138C9.62 30.9082 10.0083 31.2592 10.5458 31.3046C11.0833 31.3501 11.6225 31.3091 12.1758 31.3091ZM35.5092 31.3394C35.9742 31.3394 36.4092 31.3394 36.8425 31.3394C37.49 31.3331 38.0008 31.0338 38.305 30.4299C38.915 29.2166 38.9167 27.9802 38.3117 26.7607C38.0825 26.2984 37.7192 25.9466 37.2283 25.8967C36.665 25.8388 36.0925 25.8833 35.5092 25.8833V31.3394ZM24.3333 15.2162V17.1848H28.1667C27.8125 16.2049 27.7942 15.2091 27.8883 14.1784C27.265 14.0786 26.6817 13.9798 26.0958 13.8996C26.0014 13.8983 25.912 13.9445 25.8542 14.0243C25.5188 14.625 24.9702 15.055 24.3333 15.2162ZM36.7583 24.8491C36.8142 23.5655 36.7325 22.3549 36.3692 21.1746C36.1875 20.5849 36.1883 20.584 35.6242 20.6571C35.5825 20.6624 35.5408 20.6669 35.5 20.6687L34.1392 20.7444C34.8933 21.9639 35.3442 23.2609 35.4575 24.6861C35.4796 24.7625 35.5369 24.8214 35.6092 24.842C35.9808 24.8562 36.3542 24.8491 36.7583 24.8491ZM23.8333 14.2586C24.2015 14.2622 24.5557 14.1081 24.8169 13.8309C25.0782 13.5536 25.2249 13.1761 25.2242 12.7826C25.2021 11.98 24.585 11.3429 23.8339 11.3473C23.0828 11.3516 22.4722 11.9959 22.4583 12.7986C22.4661 13.6053 23.0786 14.2557 23.8333 14.2586Z" fill="#F4F9EC"/>
<path d="M23.8425 34.6104C21.9467 34.6104 20.0509 34.6157 18.155 34.6104C16.4884 34.6042 15.2134 33.5076 14.9109 31.8356C14.8739 31.6053 14.8569 31.3718 14.86 31.1381C14.86 29.4795 14.8492 27.8199 14.86 26.1613C14.8709 24.4367 15.8842 23.0961 17.4159 22.7683C17.6634 22.7218 17.9146 22.7009 18.1659 22.706C19.645 22.7006 21.1242 22.706 22.6034 22.706C22.6869 22.7038 22.7704 22.708 22.8534 22.7184C23.1034 22.7567 23.2492 22.9144 23.2575 23.1852C23.2659 23.472 23.1217 23.6448 22.8584 23.6912C22.7448 23.7063 22.6303 23.7117 22.5159 23.7072C21.0784 23.7072 19.6409 23.7072 18.2034 23.7072C16.7175 23.7072 15.8034 24.6826 15.8009 26.2611C15.7975 27.8645 15.7975 29.4679 15.8009 31.0713C15.8009 32.6061 16.7309 33.6083 18.1625 33.61C21.9542 33.6148 25.7459 33.6148 29.5375 33.61C30.9542 33.61 31.8884 32.607 31.8925 31.0998C31.8975 29.4744 31.8975 27.8487 31.8925 26.2228C31.8884 24.7022 30.97 23.717 29.5467 23.7099C28.0984 23.7019 26.6509 23.7099 25.2025 23.7099C25.0882 23.7138 24.9738 23.7061 24.8609 23.6867C24.6467 23.6385 24.4943 23.4353 24.4969 23.2014C24.4996 22.9675 24.6565 22.7682 24.8717 22.7256C24.9435 22.7126 25.0164 22.7073 25.0892 22.7095C26.5992 22.7095 28.11 22.6935 29.62 22.7095C31.2609 22.73 32.51 23.8542 32.7867 25.5306C32.8202 25.773 32.8342 26.018 32.8284 26.2629C32.8317 27.8544 32.8317 29.4465 32.8284 31.0392C32.8284 33.1834 31.4842 34.6104 29.47 34.6131C27.5934 34.6137 25.7175 34.6128 23.8425 34.6104Z" fill="#F4F9EC"/>
<path d="M27.9391 29.5088C27.163 29.5135 26.4608 29.0173 26.1607 28.2521C25.8606 27.4869 26.0219 26.6037 26.5692 26.0154C27.1165 25.427 27.9417 25.2496 28.6593 25.566C29.3768 25.8825 29.845 26.6302 29.845 27.46C29.84 28.5848 28.9914 29.4971 27.9391 29.5088ZM27.9333 26.4106C27.397 26.4151 26.9595 26.871 26.9417 27.4439C26.9353 27.8693 27.1695 28.2568 27.535 28.4252C27.9004 28.5937 28.3249 28.5098 28.6098 28.2129C28.8948 27.9159 28.9841 27.4645 28.8359 27.0697C28.6877 26.6749 28.3313 26.4146 27.9333 26.4106Z" fill="#F4F9EC"/>
<path d="M21.875 27.4492C21.878 28.279 21.4125 29.0288 20.6961 29.3482C19.9796 29.6676 19.1536 29.4935 18.6042 28.9072C18.0549 28.321 17.8905 27.4384 18.1881 26.672C18.4856 25.9056 19.1862 25.4067 19.9625 25.4085C21.0165 25.4109 21.8709 26.3226 21.875 27.4492ZM18.9833 27.4492C18.9884 28.0162 19.4154 28.4754 19.9458 28.4841C20.4761 28.4928 20.9162 28.0478 20.9375 27.4813C20.9518 27.1021 20.7726 26.7445 20.4694 26.547C20.1662 26.3496 19.7867 26.3433 19.478 26.5308C19.1693 26.7182 18.98 27.0698 18.9833 27.4492Z" fill="#F4F9EC"/>
<path d="M23.8792 32.1305C23.2692 32.1255 22.6842 31.8704 22.245 31.4179C22.0042 31.1729 21.9775 30.8709 22.1683 30.6554C22.3592 30.4398 22.6033 30.4425 22.8608 30.6669C23.5642 31.2798 24.2017 31.2789 24.9067 30.6669C25.1567 30.446 25.4067 30.4451 25.5983 30.6669C25.79 30.8888 25.765 31.1711 25.5375 31.4063C25.094 31.8693 24.4991 32.1291 23.8792 32.1305Z" fill="#F4F9EC"/>
<path d="M34.25 15.7133C35.1142 15.7133 35.9792 15.7133 36.8433 15.7133C37.2158 15.7133 37.4267 15.8915 37.4358 16.1961C37.4458 16.5168 37.225 16.7136 36.8433 16.7136C35.1245 16.7136 33.4058 16.7136 31.6875 16.7136C31.3033 16.7136 31.085 16.5186 31.0958 16.1952C31.105 15.887 31.3142 15.7142 31.6875 15.7124C32.5417 15.7115 33.3958 15.7133 34.25 15.7133Z" fill="#F4F9EC"/>
<path d="M33.5992 13.3722C34.2333 13.3722 34.8675 13.3722 35.5008 13.3722C35.8508 13.3722 36.0525 13.5504 36.0625 13.8479C36.0742 14.1623 35.8642 14.3699 35.5075 14.3717C34.2192 14.3752 32.9308 14.3752 31.6425 14.3717C31.3092 14.3717 31.0967 14.1695 31.0941 13.8728C31.0917 13.5762 31.2967 13.3758 31.6358 13.3731C32.29 13.3686 32.945 13.3722 33.5992 13.3722Z" fill="#F4F9EC"/>
</svg>
