<svg width="48" height="48" viewBox="0 0 48 48" fill="none" xmlns="http://www.w3.org/2000/svg">
<path d="M0 10C0 4.47715 4.47715 0 10 0H38C43.5228 0 48 4.47715 48 10V38C48 43.5228 43.5228 48 38 48H10C4.47715 48 0 43.5228 0 38V10Z" fill="#02ABFF"/>
<g clip-path="url(#clip0_16_46613)">
<path d="M23.3142 8H24.6892C25.145 8.10751 25.3958 8.40336 25.49 8.8534C25.5192 9.02784 25.5713 9.19766 25.645 9.35844C25.706 9.4773 25.8036 9.57342 25.9233 9.63263C26.2175 9.76097 26.5642 9.79931 26.8233 9.97432C27.4475 10.391 28.0108 10.391 28.6217 9.94432C28.9158 9.72847 29.2692 9.80264 29.5383 10.0552C29.8658 10.3594 30.1833 10.6752 30.4858 11.0044C30.7358 11.2778 30.7575 11.6019 30.5925 11.9328C30.4817 12.1562 30.3717 12.3812 30.2392 12.5929C30.1392 12.7268 30.1392 12.9106 30.2392 13.0446C30.3863 13.2958 30.5139 13.558 30.6208 13.8288C30.7483 14.1471 30.7617 14.5638 30.9808 14.7755C31.2 14.9872 31.6267 15.0155 31.9567 15.1372C32.2867 15.2589 32.4917 15.5023 32.5033 15.8623C32.5175 16.299 32.515 16.7365 32.5033 17.1732C32.495 17.5599 32.2892 17.8166 31.9258 17.9399C31.66 18.03 31.3875 18.1008 31.1225 18.19C31.0442 18.2175 30.9817 18.2891 30.8667 18.3733C31.0333 18.4366 31.13 18.4742 31.2258 18.5083C33.8283 19.4417 36.4292 20.3818 39.0358 21.3019C39.4992 21.4686 39.8467 21.7077 40 22.1861V22.6236C39.8408 23.082 39.5108 23.3362 39.0558 23.4904C38.0425 23.8321 37.0392 24.2029 36.0325 24.563C35.3408 24.813 34.65 25.063 33.9042 25.328C34.0483 25.383 34.1317 25.4164 34.2167 25.4464C35.79 26.0097 37.36 26.5815 38.9392 27.1307C39.41 27.2973 39.8025 27.5182 40 27.9991V28.4991C39.8283 28.9808 39.4633 29.2225 38.9917 29.38C37.9917 29.7134 36.9917 30.0859 35.9983 30.4434C35.575 30.5951 35.1517 30.7493 34.66 30.9276C34.8225 30.9918 34.915 31.0318 35.0092 31.0651C36.3475 31.5452 37.6833 32.0335 39.0275 32.4977C39.4892 32.6569 39.8392 32.9011 40 33.3745V33.812C39.8467 34.2904 39.5 34.5321 39.0367 34.6963C35.37 35.9964 31.7094 37.3048 28.055 38.6216C26.785 39.0774 25.5183 39.5383 24.25 40H23.75C23.7279 39.9795 23.7032 39.9619 23.6767 39.9475C18.8072 38.2074 13.9375 36.4694 9.0675 34.7338C8.59833 34.5671 8.20167 34.3537 8 33.8745V33.3745C8.15917 32.9186 8.4925 32.6686 8.94667 32.5119C10.205 32.0819 11.4542 31.6252 12.7067 31.1785C12.8975 31.1101 13.0867 31.0351 13.34 30.9393C13.1867 30.8776 13.0958 30.8385 13.0067 30.8051C11.6633 30.3242 10.3275 29.835 8.98167 29.3717C8.52083 29.2133 8.16833 28.9725 8.00167 28.5016V28.0016C8.19583 27.534 8.56583 27.2982 9.03583 27.1465C9.83583 26.8873 10.6192 26.589 11.415 26.3056L14.0925 25.343C13.9592 25.2864 13.8775 25.2455 13.7917 25.2155C12.1875 24.6413 10.585 24.0604 8.97667 23.5012C8.51417 23.3429 8.16333 23.1003 8.00167 22.6261V22.1886C8.15417 21.7094 8.50167 21.4677 8.965 21.3052C11.4267 20.4401 13.8817 19.5551 16.3375 18.6758C16.5875 18.5867 16.8375 18.4892 17.1708 18.3608C17.0688 18.294 16.9621 18.2344 16.8517 18.1825C16.6058 18.0991 16.3517 18.0283 16.1083 17.9466C15.7125 17.8166 15.5133 17.5791 15.4983 17.1749C15.4828 16.7482 15.4828 16.3215 15.4983 15.8948C15.5125 15.4898 15.7125 15.2497 16.105 15.1206C16.3125 15.0522 16.5217 14.9805 16.7325 14.9322C16.9417 14.9055 17.1074 14.7426 17.1375 14.5338C17.2033 14.243 17.2817 13.9288 17.4475 13.6896C17.8742 13.0746 17.8508 12.5229 17.4092 11.9245C17.1942 11.6328 17.2567 11.2761 17.51 11.0027C17.8133 10.6744 18.1308 10.3577 18.4583 10.0535C18.7417 9.79014 19.0733 9.77347 19.4133 9.94849C19.635 10.0618 19.8458 10.2035 20.08 10.2918C20.215 10.3386 20.3617 10.3386 20.4967 10.2918C20.8925 10.1368 21.26 9.88181 21.6633 9.79181C22.1892 9.67346 22.4292 9.39094 22.5042 8.88757C22.585 8.42087 22.8417 8.10918 23.3142 8ZM9.10167 28.2666C9.25167 28.3224 9.33583 28.3558 9.42083 28.3858C14.1375 30.0737 18.8536 31.7627 23.5692 33.4528C23.8371 33.5576 24.1346 33.5576 24.4025 33.4528C28.3842 32.0244 32.3683 30.6023 36.355 29.1867L38.8867 28.2816C38.7733 28.2307 38.7117 28.1982 38.6458 28.1741C36.6108 27.4457 34.5767 26.7131 32.5358 25.9989C32.3503 25.9494 32.154 25.959 31.9742 26.0264C29.5064 26.8987 27.0408 27.7793 24.5775 28.6683C24.2068 28.8104 23.7966 28.8104 23.4258 28.6683C20.9625 27.7765 18.495 26.899 16.0317 26.0089C15.8192 25.9273 15.5839 25.9288 15.3725 26.0131C13.8192 26.5765 12.2617 27.1298 10.7058 27.6874C10.1908 27.8732 9.67583 28.0599 9.10167 28.2666ZM9.10167 33.6003C9.26833 33.6645 9.38083 33.7112 9.49667 33.752C14.2244 35.4433 18.9514 37.1351 23.6775 38.8274C23.8674 38.9042 24.0793 38.9066 24.2708 38.8341C28.5275 37.309 32.7858 35.7886 37.0458 34.2729L38.8942 33.6137C38.8067 33.5728 38.7708 33.5512 38.7325 33.5378C36.8925 32.8794 35.0533 32.2186 33.21 31.571C33.0736 31.5366 32.9298 31.5462 32.7992 31.5985C30.0558 32.5719 27.315 33.5514 24.5767 34.5371C24.2056 34.6787 23.7953 34.6787 23.4242 34.5371C20.7575 33.5737 18.08 32.6278 15.4125 31.6577C15.1185 31.5355 14.7873 31.5388 14.4958 31.6669C14.0742 31.8427 13.6358 31.9777 13.205 32.1319L9.10167 33.6003ZM30.5975 19.4176C30.1625 19.9251 30.055 20.4176 30.4917 20.9335C30.5401 21.0014 30.5794 21.0753 30.6083 21.1535C30.7567 21.4777 30.7367 21.7927 30.4942 22.0553C30.1842 22.3886 29.8617 22.7178 29.5233 23.0253C29.2608 23.2654 28.945 23.2945 28.6233 23.1337C28.3817 23.0128 28.1525 22.8645 27.9025 22.7645C27.7754 22.7203 27.6368 22.722 27.5108 22.7695C27.1833 22.9003 26.8825 23.1345 26.5467 23.1995C25.85 23.3345 25.5192 23.7271 25.415 24.4079C25.3583 24.7805 25.0708 25.0097 24.6883 25.0305C24.2315 25.0555 23.7735 25.0555 23.3167 25.0305C22.9342 25.0105 22.6908 24.7805 22.5783 24.4121C22.5017 24.1621 22.4433 23.9121 22.3467 23.6687C22.2954 23.5653 22.2096 23.4831 22.1042 23.4362C21.5725 23.2029 21.0367 22.9778 20.495 22.7695C20.3688 22.7223 20.2301 22.7202 20.1025 22.7637C19.8525 22.8637 19.6233 23.0137 19.3817 23.1328C19.0608 23.2929 18.745 23.2645 18.4817 23.0245C18.1483 22.7237 17.8342 22.407 17.53 22.0794C17.2583 21.7877 17.2375 21.4502 17.4275 21.0985C17.5508 20.8702 17.6775 20.6418 17.7908 20.4093C17.8258 20.3401 17.8742 20.2426 17.8458 20.1826C17.725 19.9234 17.5808 19.6751 17.4392 19.4109L9.0975 22.397C9.25667 22.4578 9.3525 22.497 9.45 22.532C14.1567 24.2138 18.8628 25.8981 23.5683 27.5849C23.8361 27.6903 24.1339 27.6903 24.4017 27.5849C28.7056 26.0431 33.0111 24.5068 37.3183 22.9762C37.8258 22.7953 38.3308 22.6095 38.9092 22.3995L30.5975 19.4176ZM29.6325 21.5511L29.5633 21.4736C29.5367 21.4177 29.5108 21.361 29.48 21.3069C29.3483 21.0569 29.22 20.8068 29.0825 20.5643C28.945 20.3218 28.97 20.0884 29.1075 19.8309C29.365 19.3467 29.6908 18.86 29.7867 18.3366C29.9292 17.5474 30.3483 17.1807 31.0867 17.0865C31.3992 17.0457 31.5033 16.8699 31.4667 16.579C31.4567 16.5066 31.455 16.4334 31.4617 16.3607C31.4858 16.159 31.395 16.0615 31.2017 16.014C30.9392 15.9498 30.6842 15.8573 30.4233 15.7856C30.182 15.734 29.9973 15.5393 29.9583 15.2956C29.8064 14.549 29.5112 13.8389 29.0892 13.2046C28.9455 13.0045 28.9372 12.7373 29.0683 12.5287C29.2092 12.2737 29.3467 12.017 29.4775 11.757C29.5117 11.6895 29.5542 11.5719 29.5242 11.5369C29.3575 11.3486 29.1992 11.1411 28.99 11.0219C28.9008 10.9711 28.695 11.1102 28.55 11.1777C28.3703 11.2604 28.195 11.3525 28.025 11.4536C27.775 11.6061 27.5525 11.5586 27.295 11.4286C26.74 11.1494 26.185 10.8261 25.5917 10.6785C25.0167 10.5394 24.7125 10.2727 24.6283 9.71263C24.623 9.68178 24.6152 9.6514 24.605 9.62179C24.4267 9.03841 24.4267 9.04758 23.7983 9.06092C23.6217 9.06092 23.5392 9.12092 23.4958 9.2901C23.4233 9.57179 23.3292 9.84848 23.2458 10.1235C23.1897 10.3523 23.003 10.5258 22.7708 10.5652C22.0155 10.7231 21.2971 11.0235 20.6542 11.4503C20.4619 11.586 20.2068 11.593 20.0075 11.4678C19.7433 11.3228 19.4783 11.1769 19.2067 11.0469C19.1283 11.009 19.0376 11.0056 18.9567 11.0377C18.4733 11.3311 18.4167 11.5578 18.6792 12.0495C18.7425 12.1695 18.7983 12.2937 18.8717 12.407C19.0708 12.7129 19.0383 12.9837 18.855 13.3046C18.5917 13.773 18.2992 14.2613 18.2 14.7764C18.0592 15.5056 17.675 15.8356 16.9875 15.9698C16.5208 16.0606 16.5425 16.1015 16.5333 16.6007C16.5283 16.8682 16.5933 17.0249 16.8833 17.0699C17.0975 17.1024 17.3 17.1999 17.5117 17.2524C17.8308 17.3357 17.9683 17.5374 18.0717 17.8466C18.2775 18.4642 18.4958 19.0884 18.8058 19.6567C19.0233 20.0576 19.0783 20.3785 18.8167 20.7477C18.767 20.828 18.7227 20.9115 18.6842 20.9977C18.405 21.5236 18.4117 21.5161 18.845 21.9378C18.9917 22.0803 19.1075 22.0936 19.2758 21.9911C19.5075 21.8519 19.7558 21.7411 19.9892 21.6052C20.2225 21.4694 20.4575 21.4811 20.69 21.6352C21.3157 22.0509 22.0157 22.3421 22.7517 22.4928C22.9947 22.5308 23.1906 22.7119 23.2475 22.9512C23.3308 23.2304 23.4142 23.5104 23.505 23.7846C23.5317 23.8621 23.5992 23.9796 23.655 23.9837C23.905 24.0013 24.17 24.0338 24.395 23.9579C24.4992 23.9229 24.5283 23.6546 24.585 23.4887C24.6417 23.3229 24.6992 23.1328 24.7517 22.9528C24.8233 22.6978 24.9875 22.5678 25.2433 22.4886C25.7583 22.3295 26.3267 22.2294 26.7533 21.9294C27.4583 21.4294 28.0558 21.4894 28.7 21.9661C28.7833 22.0294 28.9583 22.0811 29.0275 22.0378C29.24 21.8895 29.4422 21.7269 29.6325 21.5511Z" fill="#F4F9EC"/>
<path d="M16.4912 28.8C16.6452 28.844 16.7646 28.8714 16.8799 28.9129C18.7175 29.5737 20.5548 30.2353 22.3919 30.8977C22.4699 30.9239 22.5461 30.9552 22.62 30.9915C22.891 31.1301 22.9997 31.4065 22.8926 31.6655C22.8451 31.7937 22.7489 31.8975 22.6253 31.9541C22.5017 32.0106 22.3608 32.0152 22.2338 31.9668C21.6795 31.7784 21.1294 31.5742 20.5785 31.3758C19.196 30.8777 17.8135 30.3797 16.431 29.8816C15.9954 29.7239 15.8595 29.2666 16.165 28.9818C16.2597 28.8938 16.3932 28.854 16.4912 28.8Z" fill="#F4F9EC"/>
<path d="M16.5745 34.1336C16.6264 34.1496 16.7269 34.1739 16.8216 34.2083C18.6984 34.8912 20.5743 35.5749 22.4494 36.2594C22.8226 36.3953 22.9833 36.6319 22.9198 36.9247C22.8449 37.2686 22.5252 37.4213 22.1388 37.282C20.8904 36.8318 19.6425 36.3791 18.3952 35.9239C17.718 35.6772 17.0391 35.4365 16.3652 35.1823C16.1058 35.1013 15.9522 34.8298 16.0134 34.5606C16.079 34.3019 16.3123 34.1244 16.5745 34.1336Z" fill="#F4F9EC"/>
<path d="M23.921 21.3334C21.3264 21.3234 19.1967 19.164 19.2 16.5507C19.2 13.8807 21.3363 11.7205 23.949 11.7347C25.6718 11.6941 27.2808 12.6033 28.151 14.1091C29.0213 15.6149 29.0159 17.4803 28.1368 18.9809C27.2578 20.4815 25.6436 21.3809 23.921 21.3301V21.3334ZM23.9498 20.2646C25.2798 20.2821 26.5161 19.573 27.1848 18.409C27.8535 17.2449 27.851 15.8065 27.1781 14.6449C26.5053 13.4833 25.2666 12.7786 23.9366 12.801C21.9206 12.801 20.25 14.4923 20.2541 16.5257C20.2543 17.5178 20.644 18.4692 21.3372 19.1704C22.0305 19.8716 22.9706 20.2652 23.9506 20.2646H23.9498Z" fill="#F4F9EC"/>
<path d="M23.97 19.2C22.5019 19.1834 21.3234 17.9833 21.3334 16.5151C21.3435 15.0469 22.5384 13.8631 24.0066 13.8667C25.4748 13.8703 26.6639 15.06 26.6667 16.5282C26.6649 17.2406 26.3795 17.923 25.8734 18.4244C25.3673 18.9257 24.6823 19.2049 23.97 19.2ZM24.0034 18.1304C24.8832 18.1212 25.59 17.4026 25.5847 16.5228C25.5793 15.643 24.8638 14.933 23.9839 14.9345C23.1041 14.936 22.391 15.6484 22.3887 16.5282C22.3873 16.9558 22.5574 17.366 22.8609 17.6671C23.1644 17.9682 23.5759 18.1351 24.0034 18.1304Z" fill="#F4F9EC"/>
</g>
<defs>
<clipPath id="clip0_16_46613">
<rect width="32" height="32" fill="white" transform="translate(8 8)"/>
</clipPath>
</defs>
</svg>
