<svg version="1.1" id="Layer_1" xmlns="http://www.w3.org/2000/svg" xmlns:xlink="http://www.w3.org/1999/xlink" x="0px" y="0px"
	 width="100%" viewBox="0 0 1024 960" enable-background="new 0 0 1024 960" xml:space="preserve">
<path fill="#000000" opacity="1.000000" stroke="none" 
	d="
M176.115341,550.927979 
	C169.417175,547.145203 162.969681,543.657471 156.677521,539.909119 
	C153.843033,538.220642 151.190765,537.842529 148.174133,539.163757 
	C142.543350,541.629944 137.000183,541.378540 131.238953,539.127930 
	C117.658722,533.822937 112.295914,515.276001 124.802200,503.448456 
	C127.655029,500.750488 128.885071,498.298340 128.839142,494.511139 
	C128.697723,482.849304 128.958511,471.182800 128.839966,459.520355 
	C128.772964,452.928162 131.713577,448.597870 137.432526,445.553436 
	C147.417175,440.238251 157.239044,434.618103 167.163513,429.188568 
	C170.297684,427.473907 172.019714,425.083344 172.713821,421.460022 
	C174.892075,410.089294 182.404449,405.209930 192.962814,404.123535 
	C201.859192,403.208191 213.034348,409.177917 214.982742,419.857971 
	C216.172012,426.376892 219.978973,429.241821 225.042007,431.523407 
	C234.320175,435.704651 242.837601,441.250275 251.677048,446.203003 
	C257.365906,449.390472 260.139801,454.224823 259.704163,461.491943 
	C258.988556,473.428375 259.552704,485.441193 259.564056,497.421814 
	C259.565887,499.369537 260.994843,500.333710 262.241364,501.407501 
	C269.174011,507.379700 273.063263,514.838013 270.448364,523.881287 
	C267.416748,534.365723 259.610565,539.868042 248.784668,540.994934 
	C245.331757,541.354370 242.304123,539.575073 239.182327,538.600220 
	C236.863937,537.876282 235.412491,538.028992 233.286499,539.250061 
	C222.173035,545.633057 210.938721,551.812256 199.633865,557.851685 
	C195.773483,559.914062 191.653961,559.917297 187.700485,557.570740 
	C183.977936,555.361267 180.189041,553.263611 176.115341,550.927979 
M192.851578,535.785156 
	C195.112350,536.165283 197.105789,535.446594 199.037018,534.352417 
	C205.549957,530.662231 211.905334,526.632507 218.658142,523.447510 
	C223.565613,521.132874 225.890091,517.448242 227.125916,512.618225 
	C228.406433,507.613556 230.729156,503.355103 235.303391,500.591644 
	C236.830124,499.669312 237.697754,498.369141 237.506561,496.454498 
	C236.528625,486.660675 237.126968,476.835052 237.060532,467.025696 
	C237.037430,463.614197 235.922546,461.500244 232.905457,459.880737 
	C225.597092,455.957581 218.397903,451.827148 211.214111,447.677429 
	C207.545670,445.558319 203.946442,444.723938 199.889008,446.677826 
	C196.278610,448.416473 192.634705,448.347107 188.803040,446.744324 
	C186.143494,445.631866 183.065674,444.200073 180.185150,446.148651 
	C171.757309,451.849731 162.462952,456.006836 153.738953,461.175812 
	C152.271912,462.045044 151.415131,463.148804 151.594177,464.775909 
	C152.711426,474.928894 150.839462,485.055237 151.378494,495.201813 
	C151.514008,497.752625 151.663574,500.312012 153.965790,501.911530 
	C158.812912,505.279297 160.983810,510.192902 162.172195,515.689880 
	C162.644089,517.872681 163.268951,519.901062 165.381104,521.054504 
	C174.280289,525.914001 183.185806,530.761841 192.851578,535.785156 
z"/>
<path fill="#000000" opacity="1.000000" stroke="none" 
	d="
M624.285400,518.367432 
	C622.578430,504.707214 623.157898,491.410522 623.673950,478.114410 
	C623.821228,474.317841 626.649475,474.730774 629.110901,474.727142 
	C647.591309,474.699768 666.071777,474.714661 684.552185,474.698120 
	C693.367920,474.690216 695.964905,471.098175 693.540222,462.463593 
	C692.544800,458.918640 689.724426,459.290527 687.084534,459.287689 
	C668.604126,459.267792 650.123474,459.322052 631.643677,459.214600 
	C628.980469,459.199127 625.319031,460.600555 623.934875,457.415222 
	C622.331787,453.725800 623.471802,449.551331 624.110413,445.656158 
	C624.386658,443.971069 626.318298,443.822296 627.840698,443.821350 
	C649.983582,443.807587 672.127441,443.700348 694.268555,443.899414 
	C699.938660,443.950348 709.078735,454.226990 709.226624,459.923004 
	C709.274109,461.753052 709.172791,463.587341 709.233337,465.416595 
	C709.434631,471.498901 709.627075,477.562469 702.975464,481.489502 
	C713.124451,488.668121 708.684387,498.688904 709.074707,507.532196 
	C709.256958,511.660522 697.917725,520.132996 693.143250,520.144348 
	C671.832886,520.194946 650.522217,520.132080 629.211670,520.090942 
	C627.543518,520.087769 625.865601,519.971191 624.285400,518.367432 
M687.245605,490.174164 
	C674.602295,490.176056 661.958862,490.157959 649.315613,490.185974 
	C638.688599,490.209503 638.805420,490.236084 638.557861,500.553131 
	C638.482300,503.701538 639.629822,504.692780 642.568726,504.675995 
	C657.706848,504.589355 672.845581,504.549774 687.983887,504.581055 
	C692.922546,504.591248 694.097900,501.956512 693.925964,497.536713 
	C693.767883,493.473785 694.116150,489.506195 687.245605,490.174164 
z"/>
<path fill="#000000" opacity="1.000000" stroke="none" 
	d="
M356.000000,520.139832 
	C346.505768,520.143799 337.509674,520.263855 328.517822,520.119568 
	C319.872986,519.980896 316.838348,516.834045 316.816376,508.169434 
	C316.771576,490.514130 316.775513,472.858459 316.846283,455.203278 
	C316.880402,446.687897 319.834198,443.804474 328.283081,443.801514 
	C351.435120,443.793396 374.587158,443.796326 397.739166,443.832184 
	C406.499207,443.845764 408.999847,446.342560 409.030792,455.219849 
	C409.092987,473.041443 409.101685,490.863373 409.070099,508.685059 
	C409.055725,516.797913 406.116241,519.969543 397.972626,520.074707 
	C384.150452,520.253296 370.324402,520.134277 356.000000,520.139832 
M332.942749,460.485016 
	C331.541687,474.239288 332.561432,488.025238 332.455170,501.795685 
	C332.430603,504.978119 335.112885,504.645752 337.253571,504.648102 
	C354.379517,504.666870 371.506012,504.589783 388.630920,504.724274 
	C392.475098,504.754425 393.948883,503.475830 393.880981,499.524963 
	C393.681030,487.889252 393.653137,476.246216 393.839691,464.610565 
	C393.906738,460.429565 392.350098,459.147461 388.284485,459.193604 
	C373.322052,459.363434 358.356171,459.203705 343.392151,459.279541 
	C340.103638,459.296204 336.747040,458.640503 332.942749,460.485016 
z"/>
<path fill="#000000" opacity="1.000000" stroke="none" 
	d="
M428.315796,474.818878 
	C448.267273,474.760223 467.750183,474.656067 487.231689,474.778534 
	C491.591309,474.805908 494.083984,474.099884 493.894073,468.824768 
	C493.558075,459.492615 493.788055,459.374481 487.170532,459.348175 
	C471.351532,459.285278 455.532043,459.322601 439.713348,459.223877 
	C433.594330,459.185699 427.787445,454.988007 425.891479,449.490051 
	C424.744507,446.164215 425.285248,443.842712 429.451385,443.839813 
	C451.264984,443.824646 473.079346,443.704132 494.891632,443.867432 
	C500.771973,443.911469 508.635254,452.115570 508.854584,458.086365 
	C509.074371,464.070862 509.048462,470.082062 508.753448,476.062988 
	C508.427734,482.665771 500.362213,490.054352 493.688599,490.175293 
	C489.582977,490.249725 485.474884,490.189026 481.256592,490.189026 
	C481.387146,492.624268 483.027069,493.016693 484.155823,493.821381 
	C491.066437,498.747864 497.981323,503.668762 504.934113,508.535400 
	C508.196075,510.818604 508.382568,512.995178 505.319458,515.713013 
	C499.469452,520.903442 496.333923,521.411865 489.821777,516.884583 
	C478.895660,509.288666 468.099030,501.502075 457.372894,493.625549 
	C453.990875,491.142029 450.525055,490.102509 446.310699,490.035400 
	C441.768188,489.963074 440.388489,492.062500 440.405426,495.991730 
	C440.431274,501.984528 440.283875,507.988281 440.605682,513.966064 
	C440.833557,518.199280 439.425690,520.331787 435.039978,520.126099 
	C433.711090,520.063843 432.371124,520.055664 431.045074,520.148560 
	C426.351501,520.477661 424.549011,518.427063 424.651947,513.657104 
	C424.892578,502.505768 424.726196,491.345734 424.731262,480.189209 
	C424.732330,477.813293 424.622833,475.356262 428.315796,474.818878 
z"/>
<path fill="#000000" opacity="1.000000" stroke="none" 
	d="
M756.824463,494.721497 
	C756.343506,491.413483 753.675476,491.013794 751.718567,489.994843 
	C743.306885,485.614990 734.885071,481.241455 726.318787,477.177948 
	C722.929749,475.570343 721.722717,473.339142 721.808350,469.754791 
	C721.967346,463.095123 721.984314,456.425293 721.803223,449.766724 
	C721.688354,445.542542 723.304993,443.481842 727.636108,443.775208 
	C728.962585,443.865051 730.310059,443.887207 731.631409,443.763794 
	C735.976318,443.357941 738.031921,445.306030 737.297791,449.588715 
	C735.334351,461.042236 740.033875,467.082031 750.656311,472.363647 
	C761.234009,477.623016 769.149536,477.769135 779.584961,472.421875 
	C789.251831,467.468384 795.486572,462.647095 793.048035,450.954376 
	C792.577332,448.697662 792.359802,445.232697 795.195129,444.366486 
	C799.127136,443.165222 803.448059,443.012512 807.424438,444.554565 
	C809.154114,445.225311 808.976379,447.362274 808.996338,449.010956 
	C809.077209,455.673462 808.975647,462.340576 809.188843,468.998077 
	C809.304688,472.616455 807.937439,474.937683 804.726196,476.572296 
	C795.833862,481.098969 787.092285,485.927094 778.138794,490.325958 
	C774.536987,492.095520 772.850952,494.254242 773.117432,498.414551 
	C773.468201,503.889496 773.146301,509.404663 773.227844,514.900818 
	C773.280151,518.423828 771.732605,519.965637 768.170593,520.169861 
	C757.327148,520.791565 756.870728,520.439392 756.886475,509.634155 
	C756.893494,504.803314 756.871948,499.972443 756.824463,494.721497 
z"/>
<path fill="#000000" opacity="1.000000" stroke="none" 
	d="
M534.673401,520.107910 
	C522.986633,520.263733 522.925049,520.263306 523.005371,508.985107 
	C523.075317,499.164917 522.671692,489.343262 523.405579,479.521271 
	C523.679382,475.857208 525.231934,474.686127 528.732788,474.697632 
	C553.548035,474.779175 578.363831,474.777405 603.179077,474.701599 
	C606.778564,474.690613 608.301819,476.056122 608.270752,479.698639 
	C608.171204,491.356049 608.147766,503.015717 608.274414,514.672546 
	C608.319580,518.836426 606.440918,520.444702 602.502441,520.147339 
	C602.336731,520.134827 602.169434,520.140930 602.002930,520.142822 
	C592.241516,520.253906 592.275269,520.211304 592.569885,510.616730 
	C592.738525,505.126190 592.515198,499.624268 592.642273,494.131500 
	C592.706238,491.370270 591.669189,490.207275 588.872314,490.220154 
	C573.717102,490.289948 558.561340,490.317535 543.406189,490.257721 
	C540.004883,490.244293 539.162720,492.002930 539.197388,494.970306 
	C539.273254,501.464722 539.189636,507.960815 539.226074,514.455933 
	C539.242554,517.383545 538.754944,519.849426 534.673401,520.107910 
z"/>
<path fill="#000000" opacity="1.000000" stroke="none" 
	d="
M824.149292,452.635132 
	C820.095947,445.491211 821.002747,443.828857 828.674805,443.815918 
	C853.477783,443.774048 878.280762,443.750122 903.083740,443.764038 
	C905.161072,443.765198 907.753601,443.066193 908.883789,445.532288 
	C910.068176,448.116486 908.680603,450.413788 907.028137,452.373596 
	C903.452820,456.613770 899.194824,459.450836 893.298401,459.251495 
	C887.977478,459.071625 882.644714,459.271667 877.319763,459.170135 
	C874.484802,459.116119 873.118530,460.091370 872.889709,463.136353 
	C872.327271,470.620850 872.387024,478.087860 872.593994,485.581299 
	C872.864685,495.383728 872.825378,505.195007 872.889099,515.002686 
	C872.909729,518.177673 871.421814,520.023987 868.098572,520.091980 
	C866.933777,520.115784 865.768555,520.137878 864.603577,520.133484 
	C856.784119,520.104004 856.849792,519.652161 856.482849,512.020630 
	C855.652161,494.744110 857.817078,477.453674 855.679993,459.219238 
	C850.144775,459.219238 844.240967,459.076660 838.347351,459.259796 
	C832.580078,459.438965 827.994812,457.348816 824.149292,452.635132 
z"/>
<path fill="#000000" opacity="1.000000" stroke="none" 
	d="
M591.573853,452.506287 
	C592.948181,454.559998 594.734558,455.991516 594.890930,459.749390 
	C575.438965,460.088684 556.128845,460.050507 536.509521,459.691986 
	C539.142456,449.825775 546.574158,443.847290 555.060242,443.855255 
	C561.726379,443.861481 568.440063,444.346405 575.046204,443.714905 
	C582.627686,442.990143 587.942139,445.490692 591.573853,452.506287 
z"/>
</svg>