<?xml version="1.0" encoding="UTF-8"?>
<svg id="Layer_1" xmlns="http://www.w3.org/2000/svg" version="1.1" viewBox="0 0 753.36 171.76">
  <!-- Generator: Adobe Illustrator 29.7.1, SVG Export Plug-In . SVG Version: 2.1.1 Build 8)  -->
  <defs>
    <style>
      .st0 {
        fill: none;
      }

      .st1 {
        fill: #de1773;
      }

      .st2 {
        fill: #f5cc00;
      }

      .st3 {
        fill: #16a1e0;
      }

      .st4 {
        fill: #fff;
      }
    </style>
  </defs>
  <path class="st4" d="M554.69,60.64c.25.3.47,2.65.5,3.27.22,3.9.45,12.52-.27,16.1-.3,1.48-1.48,1.59-2.22,2.3-.57.55-.98,1.25-1.61,1.84-.71.67-1.6.51-1.53,1.93.05.92.79.8,1.38,1.22.85.6,4.08,3.13,4.23,3.95-.18,6.02,1.48,14.21,0,20-.27,1.04-1.16.95-1.82,1.41-.57.4-1.97,1.84-2.69,2.48-2.29,2.01-5.09,5.64-8.28,5.93-6.36.57-14.01-.21-20.46-.23-11.51-.04-22.97.26-34.46,0-3.12-.07-6.66.35-9.7-.21-.8-.15-1.11-1.34-1.19-2.04-.38-3.41.04-8.06,0-11.63-.08-8.13-.63-17.79-.02-25.83.03-.34.1-1.23.36-1.41l1.25-.21c19.18-.71,39.07.97,58.17.02.81-.04,2.25-.12,2.99-.24,2.74-.42,2.33-5.45,2.28-7.42-.03-1.29-.11-4.11-.37-5.22-.29-1.2-.9-1.79-2.13-1.96-6.64-.89-15.2.65-21.95-.02-12.74.13-25.56-.09-38.34,0-.57-.05-1.43-.14-1.84-.53-.67-.65-.52-4.49-.41-5.6.17-1.23-.37-6.76.26-7.38.34-.24.73-.24,1.12-.28,3.67-.31,7.56.2,11.2.23,7.31.06,14.69.01,21.99,0,9.94-.02,21.41-1,31.22-.22,2.39.19,1.92.46,3.45,1.72,2.73,2.25,5.4,4.84,7.88,7.41.27.28.82.41,1,.62ZM539.57,93.19c-1.23-.09-2.9.3-4.1.32-5.44.11-10.87-.31-16.38-.23l-28.16.06c-.73.21-.94,1.34-1.01,2-.35,3.43.21,7.44.04,10.93l1.13.81h47.19c1.25-.16,2.37-.01,3.08-1.23.85-1.46.42-6.39.45-8.37,0-.52.26-1,.24-1.49-.03-.85-1.56-2.73-2.48-2.8Z"/>
  <path class="st4" d="M198.46,51.17l72.31-.07c.64.19,1.5.12,2.09.28.83.23,3.47,2.54,3.8,3.31.38.88.61,2.85.68,3.84.9,14.49-.34,29.8.22,44.36-.9,3.26.77,11.83-1.08,14.42-.51.71-2.07,1.52-2.52,2.65-1.4-.08-2.73.73-4.08.87-1.5.17-3.19-.05-4.72.01-20,.79-40.26-.64-60.31.23-2.17-.47-6.59-.06-8.39-1.3-.35-.24-2.7-2.84-2.86-3.17-.53-1.09-.36-2.66-.69-3.83.85-17.77-1.14-36.61-.01-54.25.09-1.35.26-2.98,1.12-4.05.32-.4,2.59-2.79,2.86-2.95.51-.29,1.05-.18,1.58-.35ZM207.49,64.5c-1.58.5-.81,1.77-.79,2.85.06,3.44-.13,6.88-.14,10.3-.03,8.78.34,17.68.14,26.52-.02.83-.59,2.09.08,2.69h57.1c.82-.85.11-5.07.09-6.35-.19-10.74-.26-22.01,0-32.74.02-.75.63-2.36-.08-2.92l-56.41-.36Z"/>
  <path class="st4" d="M367.65,57.92c.42.39,1.26.6,1.53,1.16.14.29.72,2.88.77,3.32.13,1.24-.21,2.3-.23,3.44-.07,5.09.29,10.26.22,15.29,0,.51-.77,4.34-.98,4.62-.32.43-1.43.65-1.93,1.08-.84.73-2.76,2.35-3.42,3.04-.37.38-.53,1.03-.99,1.38-.72.54-2.17,1.02-2.95,1.79-4.51-.14-9.03.42-13.53.27-.46-.01-3.56-.58-3.55-.12.43.58.72,1.52,1.3,1.93.46.32,1.07.34,1.5.66,5.53,4.11,11.48,8.15,17.09,12.2,2.04,1.47,4.04,3,6.08,4.47.75,1.41.26,2.87-.88,3.89-1.99,1.75-5.77,4.54-8.43,4.73-.63.04-1.22-.12-1.8-.31-1.61-.53-2.73-1.45-4.11-2.35-1.96-1.27-4.28-2.61-6.09-4.03-.41-.32-.56-.85-1.01-1.15-.53-.35-1.16-.29-1.57-.53-.22-.13-.68-.97-1.12-1.3-1.32-1.01-2.82-1.79-4.19-2.7-.5-.33-.73-.99-1.03-1.18-.39-.26-1.14-.26-1.56-.54s-.59-.92-1.09-1.27c-3.03-2.1-6.28-4.08-9.34-6.17-.45-.31-.83-1.13-1.44-1.58-.51-.37-1.18-.52-1.7-.89-.57-.41-1.09-1.26-1.66-1.57-.47-.25-1.05-.22-1.46-.48-.43-.27-.57-.91-1.27-1.31s-2.36-.54-3.28-.6c-1.22-.08-7.3-.18-8.02.16-.77.35-.85,2.32-.91,3.18-.45,6.82.23,13.86.23,20.66,0,.48-.36,3.08-.56,3.34-.22.28-1.32.41-1.72.44-2.51.19-8.39.25-10.73-.27-.7-.16-1.22-.85-1.23-1.56-.29-7.69-.06-15.37.01-23.03.04-4.51-.52-10.59-.01-14.87.13-1.11.56-1.31,1.61-1.41,4.42-.41,9.89.07,14.45.02,9.87-.12,19.92-.18,29.71-.23,4.84-.02,10.61.42,15.31.02,1.81-.16,2.73-.56,2.91-2.47.31-3.33-.24-7.15-.02-10.54-.27-1.66-2.81-1.77-4.18-1.85-7.04-.42-15,.26-22.2.23-7.71-.03-16.51.22-24.12-.22-.98-.06-3.15-.25-4.03-.49-.53-.14-4.7-2.84-5.12-3.28-.28-.3-2.27-2.93-2.5-3.31-.69-1.17-2.13-5.32-.85-6.29l30.18-.19c.4,0,.77-.2,1.09-.21,11.31-.07,22.82,0,34.21,0,.93.15,4.25,3.06,5.19,3.85,1.1.92,2.33,2.17,3.4,3.16Z"/>
  <path class="st4" d="M574.93,82.6c-.16-.13-2.9-1.38-3.67-1.83-.9-.52-2.51-.73-3.05-1.47-.34-.46-.51-2.58-.55-3.32-.26-4.67-.02-9.59.02-14.21.01-1.41-.22-9.86.42-10.35,1.21-.26,2.77-.5,3.99-.55,1.58-.06,3.97-.04,5.61,0,1.02.03,2.26.34,3.34.32.15.11.4,2.38.43,2.8.28,4.82-.57,10.68-.01,15.3.09.77.65,1.74,1.31,2.13,1.02.6,2.92,1.18,4.06,1.75,3.38,1.71,6.77,3.42,10.15,5.14,2.46,1.25,4.93,2.95,7.53,4.1,3.65,1.62,3.31.94,6.52-.58,6.35-2.99,12.65-6.08,18.82-9.39,1.47-.79,3.88-1.16,3.96-3.15.05-5.25-.61-11.63-.02-16.8.17-1.48,1.2-1.52,2.47-1.62,2.42-.18,6.43-.19,8.85,0,.54.04,1.91.18,2.15.65.04,1.83.44,3.69.1,5.48-.28,6.29.63,12.64.36,18.91-.04.97-.25,2.44-1.01,3.04-.45.35-2.09,1.26-2.71,1.6-6.4,3.54-13.09,6.84-19.52,10.41-.81.45-1.74.52-2.59,1.07-1.72,1.11-1.66.86-3.35,1.6-.57.25-.9.8-1.33,1.04-1.36.75-2.6.24-2.79,2.37-.62,6.77.54,14.49.02,21.33-.13,1.74-.2,2.31-2.05,2.48-3.08.28-6.79,0-9.91,0-2.19,0-2.16-1.07-2.27-2.91-.4-6.56.38-13.29.24-19.82-.01-.53-.3-2.54-.56-2.89-.58-.77-2.28-.68-3.05-1.04-.59-.27-.66-.9-1.19-1.18-.63-.34-1.85-.49-2.58-.87-4.82-2.47-9.52-4.97-14.39-7.36-1.4-.69-2.55-1.27-3.72-2.2Z"/>
  <path class="st4" d="M461.44,120.58c-.2.2-2.2.45-2.64.48-2.12.12-4.56-.15-6.68-.21-3.07-.09-4.1.67-4.42-3.12-.52-6.02.32-13.35.23-19.61,0-.62-.23-1.13-.23-1.7-.01-.82.78-2.48-.27-2.98l-8.66.29c-12.47-.63-25.1.33-37.48-.05-1.47-.05-2.98-1.07-3.34,1.22-.43,7.63.59,15.92.01,23.47-.11,1.37-.13,2.24-1.64,2.45-1.27.18-3.99.23-5.36.24-1.06,0-5.74-.08-6.42-.44-.54-.29-.77-2.27-.82-2.9-.69-10.05.55-20.88,0-31.01.58-2.22-.2-4.62.55-6.77l.43-.22c25.04-.49,50.12-.06,75.18-.22,2.04-.08,1.96,1.51,2.05,3.12.14,2.58-.26,5.5-.23,8.2.08,8.75.78,18.42.23,27.12-.03.47-.27,2.41-.49,2.63Z"/>
  <path class="st4" d="M736.61,60.22c-2.1,2-4.73,3.92-7.75,4.2-6.18.59-12.75-.22-18.93-.21-.88,0-2.38.29-3.23.45-.7,1.25-.1,2.53-.1,3.76.06,16.21.27,32.46,0,48.67-.01.68-.18,3.31-.8,3.51-.23.07-1.91.22-2.34.25-1.9.12-4.34.09-6.25.01-.98-.04-2.77-.1-3.64-.24-1.26-.2-1.27-1.42-1.42-2.45.65-16.83-.84-34.28,0-51.03.07-1.4,1.2-2.43-1.18-2.68s-5.79,0-8.39-.01c-3.46-.02-7.4.28-10.79.02-1.66-.13-6.76-2.37-7.86-3.55-.35-.38-.44-1-.76-1.39-1.16-1.43-2.05-2.26-2.79-4.1-.4-1.01-.86-4.18.63-4.32,23.05-.17,46.11.26,69.16.02,2.74-.03,5.62-.5,8.39-.22,1.24.12,2.07.42,2.07,1.83,0,3.45-1.69,5.27-4.04,7.5Z"/>
  <path class="st4" d="M449.6,65.05c-.11.08-.76.17-.96.18-14.25.42-29-.41-43.27-.36-2.66.01-5.73.59-8.4.24-.77-.1-1.24-.6-1.2-1.41.06-.95.85-.95,1.29-1.54.34-.46.37-1.14.77-1.6.37-.43.98-.48,1.21-.78.25-.32.33-1.03.63-1.47.96-1.43,2.63-3.14,3.67-4.51.31-.42,1.59-2.57,1.86-2.66l35.12.13c.67.22,2.26,2.01,2.74,2.65.37.49.52,1.19.89,1.69,1.5,2.04,2.92,3.69,4.3,5.82.33.51,1.42,1.19,1.56,1.67.12.39.08,1.74-.22,1.96Z"/>
  <g>
    <path class="st0" d="M91,48.63c-3.41,2.69-7.71,4.31-12.39,4.31s-8.67-1.49-12.02-4.01l-29.26,16.89v34.43c6.97,3.13,11.83,10.12,11.83,18.26,0,.76-.05,1.51-.13,2.25l30.02,17.33,29.74-17.17c-.09-.79-.15-1.59-.15-2.4,0-8.25,5-15.33,12.13-18.39v-34.3l-29.77-17.19Z"/>
    <path class="st1" d="M78.61,12.93c-11.05,0-20.01,8.96-20.01,20.01,0,.24,0,.47.02.71l-34.21,19.75c-2.67,1.54-4.31,4.38-4.31,7.46v39.82c2.72-1.38,5.79-2.17,9.05-2.17,2.91,0,5.68.63,8.17,1.75v-34.43l29.26-16.89c3.35,2.52,7.51,4.01,12.02,4.01s8.98-1.61,12.39-4.31c4.59-3.62,7.55-9.21,7.61-15.5,0-.07,0-.14,0-.2,0-11.05-8.96-20.01-20.01-20.01Z"/>
    <path class="st3" d="M138,100.82v-39.97c0-3.08-1.64-5.92-4.31-7.46l-35.08-20.25c-.06,6.29-3.02,11.87-7.61,15.5l29.77,17.19v34.3c-7.13,3.06-12.13,10.14-12.13,18.39,0,.81.05,1.61.15,2.4.74,6.14,4.25,11.42,9.24,14.55,3.08,1.93,6.71,3.05,10.61,3.05,11.05,0,20.01-8.96,20.01-20.01,0-7.67-4.32-14.33-10.66-17.69Z"/>
    <path class="st2" d="M108.79,120.92l-29.74,17.17-30.02-17.33c.08-.74.13-1.49.13-2.25,0-8.14-4.86-15.13-11.83-18.26-2.5-1.12-5.26-1.75-8.17-1.75-3.26,0-6.33.78-9.05,2.17-6.5,3.3-10.95,10.05-10.95,17.84,0,11.05,8.96,20.01,20.01,20.01,3.96,0,7.65-1.15,10.75-3.14l34.84,20.11c1.33.77,2.82,1.15,4.31,1.15s2.97-.38,4.31-1.15l34.68-20.02c-5-3.14-8.51-8.42-9.24-14.55Z"/>
  </g>
</svg>