<svg width="48" height="48" viewBox="0 0 48 48" fill="none" xmlns="http://www.w3.org/2000/svg">
<path d="M0 10C0 4.47715 4.47715 0 10 0H38C43.5228 0 48 4.47715 48 10V38C48 43.5228 43.5228 48 38 48H10C4.47715 48 0 43.5228 0 38V10Z" fill="#02ABFF"/>
<g clip-path="url(#clip0_16_46614)">
<path d="M36.75 39.9967H11.25C11.1825 39.975 11.1167 39.9483 11.0483 39.9333C9.77583 39.6567 8.85167 38.9335 8.3175 37.7471C8.175 37.4305 8.10417 37.0805 8 36.7473V34.4352C8.1775 33.9453 8.50417 33.6345 9.065 33.5878V33.2004C9.065 26.9865 9.065 20.7729 9.065 14.5596C9.065 12.8691 10.1917 11.7443 11.8842 11.741C13.5392 11.741 15.1942 11.741 16.8492 11.741H17.2017C17.2117 11.2611 17.4817 10.9628 17.785 10.6812C17.975 10.5045 18.1525 10.3137 18.3383 10.1313C18.805 9.67303 19.2858 9.61887 19.8308 9.97131C20.1975 10.2088 20.5642 10.4471 20.9183 10.702C21.0675 10.8095 21.1817 10.777 21.3433 10.7362C21.8775 10.6004 22.13 10.2771 22.1458 9.73135C22.1517 9.53722 22.2333 9.34642 22.2583 9.14812C22.3283 8.59656 22.5917 8.2008 23.125 8H24.875C25.4242 8.20163 25.6775 8.61905 25.745 9.17895C25.7675 9.36392 25.8433 9.54555 25.8475 9.72968C25.86 10.2771 26.115 10.597 26.6525 10.7295C26.8192 10.7695 26.9308 10.7937 27.0767 10.6928C27.4617 10.4262 27.8533 10.1704 28.25 9.92132C28.6467 9.6722 29.1017 9.63637 29.4425 9.95464C29.9925 10.4679 30.6925 10.8811 30.8267 11.7385H31.1825C32.8175 11.7385 34.4519 11.7385 36.0858 11.7385C36.3041 11.7321 36.5225 11.7455 36.7383 11.7785C38.0717 12.0284 38.9342 13.1116 38.9342 14.528C38.9342 20.7518 38.9342 26.9757 38.9342 33.1996V33.5937C39.5175 33.637 39.82 33.9611 39.9992 34.4343V36.7473C39.9775 36.8147 39.9508 36.8806 39.9358 36.9489C39.63 38.3336 38.8183 39.2818 37.49 39.7817C37.25 39.875 37 39.9275 36.75 39.9967ZM10.13 33.5812H37.87V14.6405C37.87 14.5363 37.87 14.4313 37.8658 14.328C37.8142 13.4865 37.16 12.8191 36.3308 12.8133C34.3733 12.7991 32.4142 12.805 30.4567 12.8133C30.3416 12.8326 30.237 12.8916 30.1608 12.9799C29.7658 13.3832 29.64 13.8314 30.0008 14.323C30.0743 14.4342 30.1811 14.5194 30.3058 14.5663C30.7692 14.6854 31.2425 14.7638 31.7067 14.8762C32.1875 14.9937 32.4892 15.332 32.5167 15.8244C32.5438 16.3025 32.5438 16.7818 32.5167 17.26C32.4883 17.7382 32.19 18.0723 31.7275 18.1915C31.4279 18.28 31.1212 18.3421 30.8108 18.3773C30.2792 18.4181 29.9342 18.6272 29.8108 19.1805C29.7692 19.3588 29.7567 19.4837 29.8625 19.6362C30.1225 20.0128 30.3758 20.3952 30.6125 20.7852C30.8983 21.2518 30.845 21.7358 30.47 22.1308C30.1908 22.4257 29.9025 22.714 29.6092 22.9931C29.1925 23.3897 28.7033 23.4347 28.2125 23.1239C27.9503 22.9742 27.6996 22.8051 27.4625 22.6182C27.0925 22.2974 26.7417 22.2349 26.2958 22.4857C26.0925 22.5998 25.9775 22.7015 25.9383 22.9264C25.865 23.343 25.7717 23.7596 25.6825 24.1762C25.5575 24.7328 25.1625 25.0527 24.5942 25.0619C24.1986 25.068 23.8028 25.068 23.4067 25.0619C22.8375 25.0527 22.4417 24.7286 22.3192 24.1754C22.2583 23.9013 22.165 23.6255 22.16 23.3497C22.1492 22.7598 21.8483 22.4432 21.3008 22.3274C21.1893 22.3001 21.0717 22.3115 20.9675 22.3599C20.5583 22.6098 20.1675 22.8856 19.7592 23.1364C19.2767 23.433 18.7992 23.3772 18.39 22.9856C18.0975 22.704 17.8067 22.4182 17.5283 22.1241C17.1525 21.7283 17.1042 21.2459 17.39 20.7785C17.5417 20.5285 17.6817 20.2653 17.8783 20.0553C18.2633 19.6387 18.3183 19.2221 18.0025 18.7564C17.9332 18.6429 17.8288 18.5551 17.705 18.5064C17.2725 18.3948 16.8292 18.3231 16.3933 18.2248C15.7867 18.0873 15.4867 17.7249 15.4683 17.1017C15.4583 16.7584 15.4633 16.4143 15.4683 16.071C15.4742 15.3303 15.7858 14.9596 16.5092 14.8213C16.9175 14.7429 17.3267 14.663 17.7325 14.5713C17.8196 14.5578 17.8983 14.5116 17.9525 14.4422C18.1792 13.9956 18.4083 13.5398 17.9267 13.1041C17.9112 13.0899 17.899 13.0726 17.8908 13.0532C17.8017 12.8383 17.6408 12.7991 17.4167 12.8033C15.5733 12.8125 13.7292 12.8033 11.8858 12.8108C11.7091 12.8052 11.5324 12.8203 11.3592 12.8558C10.5833 13.0416 10.13 13.6681 10.13 14.5505C10.13 20.7788 10.13 27.0065 10.13 33.2337V33.5812ZM29.8683 34.6835C29.8683 34.8984 29.8742 35.0751 29.8683 35.2509C29.8242 36.3798 28.9517 37.3013 27.8433 37.3113C25.2817 37.333 22.72 37.333 20.1583 37.3113C19.1725 37.3047 18.3542 36.5615 18.1817 35.5891C18.1308 35.2967 18.1308 34.9951 18.1067 34.691H9.08333C9.08333 35.3259 9.02833 35.9407 9.09417 36.549C9.25 37.9795 10.3817 38.9294 11.8667 38.9294C19.9583 38.9294 28.0497 38.9294 36.1408 38.9294C36.2242 38.9294 36.3075 38.9294 36.3908 38.9252C37.4839 38.8741 38.4347 38.1606 38.7892 37.1255C39.0575 36.3248 38.8958 35.5025 38.9417 34.6826L29.8683 34.6835ZM18.2858 11.7185C18.575 12.1534 18.8558 12.5783 19.14 13.0008C19.3859 13.3369 19.4217 13.7828 19.2325 14.1539C19.1643 14.2711 19.1085 14.3951 19.0658 14.5238C18.8908 15.287 18.3758 15.6219 17.6375 15.6903C17.5855 15.6947 17.5339 15.7034 17.4833 15.7161C17.1742 15.7911 16.7442 15.7736 16.5892 15.971C16.4342 16.1685 16.5458 16.5884 16.53 16.91C16.52 17.0942 16.5683 17.1842 16.7742 17.2175C17.2358 17.2916 17.6908 17.3983 18.1492 17.4974C18.5045 17.5707 18.7963 17.823 18.92 18.164C19.0158 18.3939 19.0917 18.6339 19.2033 18.8555C19.4333 19.3121 19.3875 19.732 19.0975 20.1461C18.8183 20.5444 18.5558 20.9543 18.315 21.3126L19.1875 22.2499C19.5842 21.9858 19.9808 21.7375 20.36 21.4634C20.7908 21.1526 21.2283 21.0993 21.7058 21.3417C21.8929 21.4324 22.0855 21.5111 22.2825 21.5775C22.701 21.7074 23.0074 22.0663 23.07 22.4999C23.1625 22.9998 23.2708 23.4938 23.3733 23.9921H24.6283C24.7317 23.4855 24.8383 22.9881 24.9325 22.4924C24.9933 22.0686 25.2896 21.7161 25.6967 21.5834C25.9029 21.5108 26.1051 21.4273 26.3025 21.3334C26.7683 21.1018 27.1983 21.1434 27.6225 21.4442C28.0183 21.725 28.4292 21.985 28.7833 22.2207L29.7175 21.3567C29.4775 20.996 29.2608 20.6277 29.0017 20.2928C28.6092 19.7829 28.6358 19.3021 28.8417 18.6956C29.1342 17.834 29.6467 17.415 30.5283 17.3466C30.8383 17.3225 31.2642 17.2875 31.4125 17.09C31.5608 16.8925 31.4483 16.4701 31.4683 16.1493C31.4808 15.9469 31.3942 15.8819 31.2075 15.8511C30.8175 15.7886 30.4333 15.6919 30.0408 15.6269C29.5333 15.5436 29.1833 15.2828 29.0217 14.7821C28.9621 14.5938 28.8871 14.4107 28.7975 14.2347C28.555 13.7698 28.6033 13.3415 28.9042 12.9174C29.185 12.5225 29.445 12.1118 29.6958 11.7352L28.8175 10.8187C28.3942 11.1014 27.9714 11.3847 27.5492 11.6685C27.2045 11.9208 26.7469 11.9573 26.3667 11.7626C26.1508 11.661 25.9275 11.5735 25.7 11.491C25.2831 11.356 24.9807 10.9938 24.9225 10.5595C24.8333 10.0596 24.7217 9.56971 24.6225 9.08647H23.3692C23.265 9.59971 23.1617 10.098 23.065 10.597C23.0004 11.008 22.7136 11.3495 22.32 11.4844C22.0867 11.5735 21.8533 11.6627 21.6267 11.7668C21.2461 11.9599 20.7892 11.9219 20.4458 11.6685C20.0292 11.3827 19.5983 11.1044 19.1842 10.8287C18.8842 11.1244 18.5975 11.4085 18.2858 11.7185ZM19.2317 34.681C19.0525 35.61 19.5042 36.2898 20.5333 36.2715C22.8725 36.2307 25.2142 36.2365 27.5533 36.2715C28.3867 36.284 28.9908 35.6775 28.7558 34.6818L19.2317 34.681Z" fill="#F4F9EC"/>
<path d="M15.995 32.5313C14.0533 32.5276 12.3051 31.3544 11.5662 29.5592C10.8272 27.764 11.2429 25.7004 12.6195 24.3313C13.996 22.9621 16.0621 22.5572 17.8538 23.3054C19.6455 24.0536 20.8097 25.8075 20.8033 27.7488C20.7877 30.3934 18.64 32.5295 15.995 32.5313ZM16.0116 31.4615C18.0709 31.4514 19.7327 29.7753 19.7249 27.7164C19.7171 25.6575 18.0426 23.9941 15.9833 23.9995C13.924 24.0051 12.2584 25.6774 12.2616 27.7363C12.2749 29.7976 13.95 31.4615 16.0116 31.4615Z" fill="#F4F9EC"/>
<path d="M32.0141 32.5314C29.3875 32.5463 27.2116 30.3925 27.1966 27.7605C27.1838 25.8166 28.3444 24.0566 30.1365 23.3025C31.9286 22.5484 33.9986 22.9488 35.3801 24.3168C36.7615 25.6848 37.1818 27.7506 36.4447 29.5495C35.7076 31.3484 33.9585 32.5255 32.0141 32.5314ZM32.0141 31.4615C34.0737 31.4514 35.7357 29.7748 35.7275 27.7156C35.7192 25.6563 34.0438 23.9932 31.9842 23.9996C29.9245 24.006 28.2596 25.6796 28.2641 27.7388C28.2752 29.801 29.9524 31.4657 32.015 31.4615H32.0141Z" fill="#F4F9EC"/>
<path d="M15.1934 35.7383C15.4642 35.7383 15.7351 35.7292 16.0051 35.7383C16.2893 35.7394 16.5212 35.9662 16.5287 36.2503C16.5361 36.5344 16.3164 36.773 16.0326 36.789C15.4817 36.809 14.9292 36.809 14.3784 36.789C14.2351 36.7865 14.0994 36.7246 14.0036 36.6181C13.9078 36.5116 13.8606 36.3701 13.8734 36.2274C13.8901 35.94 14.0942 35.7467 14.4126 35.735C14.6726 35.7308 14.9326 35.7375 15.1934 35.7383Z" fill="#F4F9EC"/>
<path d="M11.2009 35.74C11.3423 35.7397 11.4779 35.7957 11.578 35.8956C11.678 35.9955 11.7342 36.131 11.7342 36.2724C11.7217 36.5663 11.4793 36.798 11.1851 36.7973C10.9024 36.7862 10.6783 36.5551 10.6759 36.2724C10.6698 36.1307 10.7229 35.9929 10.8225 35.8919C10.9221 35.7909 11.0591 35.7359 11.2009 35.74Z" fill="#F4F9EC"/>
<path d="M12.79 35.7392C12.9316 35.7334 13.0692 35.7864 13.1702 35.8857C13.2713 35.985 13.3267 36.1217 13.3234 36.2633C13.3245 36.4048 13.269 36.5408 13.1694 36.6413C13.0697 36.7417 12.934 36.7982 12.7925 36.7982C12.5106 36.7859 12.2835 36.5625 12.2667 36.2808C12.264 36.1395 12.3177 36.003 12.4159 35.9014C12.5141 35.7997 12.6487 35.7414 12.79 35.7392Z" fill="#F4F9EC"/>
<path d="M28.26 16.5335C28.254 18.8833 26.3458 20.7843 23.9955 20.7819C21.6453 20.7794 19.7411 18.8744 19.74 16.5246C19.7389 14.1748 21.6414 12.268 23.9916 12.2634C25.1242 12.263 26.2105 12.7128 27.0112 13.5138C27.8118 14.3147 28.2611 15.4011 28.26 16.5335ZM27.1933 16.5451C27.1942 14.7826 25.7667 13.3525 24.0039 13.3499C22.241 13.3473 20.8093 14.7732 20.805 16.5357C20.8007 18.2983 22.2254 19.7311 23.9883 19.7371C25.7545 19.7394 27.1887 18.311 27.1933 16.5451Z" fill="#F4F9EC"/>
<path d="M14.9208 28.6013L17.0491 26.4658C17.2766 26.2375 17.5 26.0042 17.7341 25.7834C17.9841 25.5501 18.3033 25.5485 18.5133 25.7651C18.6157 25.8654 18.6718 26.0038 18.6681 26.1471C18.6645 26.2904 18.6015 26.4258 18.4941 26.5208C17.4386 27.5856 16.3789 28.6446 15.315 29.6977C15.065 29.9402 14.7925 29.9285 14.5383 29.6861C14.1927 29.3561 13.8541 29.0181 13.5225 28.6721C13.2841 28.4221 13.285 28.1063 13.5041 27.8931C13.7233 27.6798 14.0308 27.6898 14.2816 27.9322C14.49 28.1347 14.6841 28.353 14.9208 28.6013Z" fill="#F4F9EC"/>
<path d="M32.0217 26.9756C32.4058 26.584 32.7675 26.2099 33.135 25.8433C33.4125 25.5667 33.7317 25.5376 33.9608 25.76C34.2025 25.9925 34.1758 26.3083 33.8775 26.6049C33.5108 26.9731 33.14 27.3372 32.7442 27.7297L33.7725 28.7486C33.8563 28.8264 33.9345 28.9099 34.0067 28.9986C34.181 29.2091 34.1609 29.519 33.9608 29.7051C33.8654 29.8045 33.7336 29.8607 33.5958 29.8607C33.4581 29.8607 33.3262 29.8045 33.2308 29.7051C32.8975 29.3919 32.5808 29.0611 32.2558 28.7386C32.1767 28.6595 32.0933 28.5837 31.99 28.4887C31.5908 28.8903 31.2083 29.2852 30.815 29.6676C30.5142 29.9601 30.1283 29.9243 29.9433 29.5952C29.7933 29.326 29.8783 29.0952 30.0842 28.8928C30.4683 28.5137 30.85 28.1329 31.2567 27.7263C30.84 27.3097 30.4383 26.9215 30.045 26.5249C29.8542 26.3332 29.8133 26.1083 29.9525 25.87C30.0639 25.6565 30.3146 25.5563 30.5425 25.6342C30.6692 25.6807 30.7833 25.756 30.8758 25.8542C31.1842 26.1483 31.4808 26.4549 31.7842 26.7548C31.8525 26.8257 31.9283 26.8906 32.0217 26.9756Z" fill="#F4F9EC"/>
</g>
<defs>
<clipPath id="clip0_16_46614">
<rect width="32" height="32" fill="white" transform="translate(8 8)"/>
</clipPath>
</defs>
</svg>
