<svg width="48" height="48" viewBox="0 0 48 48" fill="none" xmlns="http://www.w3.org/2000/svg">
<path d="M0 10C0 4.47715 4.47715 0 10 0H38C43.5228 0 48 4.47715 48 10V38C48 43.5228 43.5228 48 38 48H10C4.47715 48 0 43.5228 0 38V10Z" fill="#02ABFF"/>
<path d="M39.9056 31.5535C39.7155 30.8468 39.258 30.2549 38.6176 29.887C37.9772 29.519 37.2333 29.4207 36.5233 29.6102L28.4655 31.7584C28.6435 30.5854 28.1044 29.3676 27.0133 28.735L19.6893 24.4888C19.6673 24.4762 19.6446 24.4649 19.6212 24.4552C18.4676 23.9788 17.2977 23.9777 16.1441 24.4521L13.6187 25.4902V24.0997C13.6187 23.7881 13.365 23.5355 13.0518 23.5355H8.56692C8.25379 23.5355 8 23.7881 8 24.0997V36.8628C8 37.1744 8.25379 37.4269 8.56692 37.4269H13.0518C13.365 37.4269 13.6187 37.1744 13.6187 36.8628V35.5998C14.9565 35.0677 16.0442 35.1083 17.2096 35.7226L21.4567 37.9614C22.2088 38.358 22.9697 38.5568 23.7303 38.5568C24.1161 38.5568 24.5018 38.5057 24.8861 38.4032L37.9528 34.9193C39.4236 34.5271 40.2996 33.0172 39.9056 31.5535ZM12.4849 36.2986H9.13384V24.6638H12.4849V36.2986ZM37.6594 33.8294L24.5927 37.3133C23.7242 37.545 22.8721 37.4309 21.9875 36.9644L17.7404 34.7256C16.3941 34.016 15.0975 33.908 13.6187 34.3987V26.7109L16.5771 25.4949C17.4436 25.1385 18.2864 25.1346 19.1524 25.4833L26.4425 29.7099C27.3291 30.2239 27.6302 31.3601 27.1135 32.2424C26.8646 32.6675 26.4619 32.9713 25.9794 33.0978C25.4969 33.2245 24.996 33.1578 24.5688 32.9101L20.6565 30.6419C20.386 30.485 20.0389 30.576 19.8813 30.8453C19.7237 31.1145 19.8152 31.4599 20.0857 31.6168L23.998 33.885C24.4595 34.1525 24.9735 34.2893 25.4957 34.2893C25.7531 34.2893 26.0126 34.256 26.2686 34.1888C26.9412 34.0123 27.5179 33.6201 27.9209 33.0717L36.8169 30.7C37.2344 30.5885 37.6727 30.6467 38.0507 30.864C38.4287 31.0813 38.6986 31.4297 38.8104 31.8452C39.0427 32.7083 38.5263 33.5982 37.6594 33.8294ZM29.5363 22.688C32.0035 22.688 34.0105 20.6907 34.0105 18.2357C34.0105 15.7807 32.0034 13.7835 29.5363 13.7835C27.0693 13.7835 25.0623 15.7807 25.0623 18.2357C25.0623 20.6907 27.0693 22.688 29.5363 22.688ZM29.5363 14.9117C31.3783 14.9117 32.8767 16.4028 32.8767 18.2356C32.8767 20.0685 31.3782 21.5596 29.5363 21.5596C27.6946 21.5596 26.1961 20.0685 26.1961 18.2356C26.1961 16.4028 27.6945 14.9117 29.5363 14.9117ZM20.8892 20.2358H22.4415C22.5977 20.7861 22.8175 21.3141 23.0985 21.8135L22.0007 22.9061C21.7793 23.1264 21.7793 23.4835 22.0007 23.7038L24.0413 25.7345C24.2627 25.9549 24.6215 25.9549 24.843 25.7346L25.9409 24.6421C26.4427 24.9217 26.9734 25.1405 27.5265 25.2959V26.8406C27.5265 27.1522 27.7803 27.4047 28.0934 27.4047H30.9794C31.2925 27.4047 31.5463 27.1522 31.5463 26.8406V25.2958C32.0994 25.1404 32.6299 24.9217 33.1316 24.6421L34.2296 25.7346C34.451 25.9549 34.8099 25.9549 35.0313 25.7346L37.0721 23.7039C37.1784 23.5981 37.2381 23.4545 37.2381 23.305C37.2381 23.1554 37.1784 23.0118 37.0721 22.9061L35.9742 21.8136C36.2552 21.3141 36.4751 20.786 36.6312 20.2358H38.1835C38.4966 20.2358 38.7504 19.9833 38.7504 19.6717V16.7998C38.7504 16.4882 38.4966 16.2357 38.1835 16.2357H36.631C36.4749 15.6852 36.255 15.1572 35.9741 14.658L37.072 13.5655C37.1784 13.4597 37.2381 13.3162 37.2381 13.1666C37.2381 13.0171 37.1784 12.8735 37.072 12.7677L35.0313 10.7369C34.8098 10.5166 34.4509 10.5166 34.2295 10.7369L33.1316 11.8295C32.6299 11.55 32.0993 11.3312 31.5463 11.1757V9.6308C31.5463 9.3192 31.2925 9.06665 30.9794 9.06665H28.0934C27.7802 9.06665 27.5264 9.3192 27.5264 9.6308V11.1756C26.9732 11.331 26.4425 11.5498 25.9409 11.8293L24.8429 10.7368C24.6215 10.5165 24.2626 10.5165 24.0412 10.7368L22.0005 12.7675C21.7791 12.9878 21.7791 13.345 22.0005 13.5653L23.0985 14.658C22.8175 15.1574 22.5977 15.6853 22.4415 16.2356H20.8892C20.5761 16.2356 20.3223 16.4881 20.3223 16.7997V19.6716C20.3223 19.9832 20.5761 20.2358 20.8892 20.2358ZM21.4561 17.3638H22.8844C23.1513 17.3638 23.3821 17.1785 23.4385 16.9188C23.5966 16.1906 23.8828 15.5034 24.289 14.8762C24.4336 14.653 24.4021 14.3595 24.2134 14.1717L23.2032 13.1664L24.4422 11.9335L25.4525 12.9387C25.6413 13.1265 25.9363 13.1578 26.1606 13.0139C26.7904 12.6097 27.4809 12.325 28.2132 12.1676C28.4741 12.1115 28.6604 11.8818 28.6604 11.6162V10.1949H30.4126V11.6162C30.4126 11.8819 30.5988 12.1115 30.8597 12.1676C31.5917 12.325 32.2822 12.6098 32.9121 13.0141C33.1365 13.158 33.4314 13.1268 33.6202 12.9389L34.6305 11.9335L35.8695 13.1666L34.8593 14.1717C34.6705 14.3596 34.639 14.6532 34.7837 14.8764C35.1898 15.503 35.4759 16.1902 35.6341 16.9188C35.6905 17.1785 35.9213 17.3639 36.1883 17.3639H37.6167V19.1075H36.1883C35.9213 19.1075 35.6905 19.2929 35.6341 19.5527C35.4763 20.2806 35.1902 20.9678 34.7837 21.5951C34.639 21.8185 34.6705 22.1119 34.8593 22.2997L35.8695 23.3049L34.6305 24.5378L33.6202 23.5326C33.4314 23.3447 33.1364 23.3135 32.9121 23.4574C32.2821 23.8617 31.5916 24.1464 30.8598 24.3037C30.5988 24.3598 30.4126 24.5895 30.4126 24.8551V26.2764H28.6604V24.8551C28.6604 24.5895 28.4741 24.3598 28.2131 24.3037C27.4811 24.1464 26.7906 23.8617 26.1606 23.4574C25.9362 23.3135 25.6413 23.3448 25.4525 23.5326L24.4423 24.5378L23.2033 23.3049L24.2134 22.2996C24.4021 22.1118 24.4336 21.8183 24.289 21.5951C23.8828 20.968 23.5967 20.2808 23.4385 19.5525C23.3821 19.2928 23.1513 19.1074 22.8844 19.1074H21.4561V17.3638Z" fill="#F4F9EC"/>
</svg>
