<svg width="48" height="48" viewBox="0 0 48 48" fill="none" xmlns="http://www.w3.org/2000/svg">
<path d="M0 10C0 4.47715 4.47715 0 10 0H38C43.5228 0 48 4.47715 48 10V38C48 43.5228 43.5228 48 38 48H10C4.47715 48 0 43.5228 0 38V10Z" fill="#02ABFF"/>
<g clip-path="url(#clip0_16_46608)">
<path d="M28.9978 40H17.1241C16.7808 39.82 16.6399 39.5392 16.6816 39.1542C16.6899 38.9984 16.6899 38.8424 16.6816 38.6867C16.6816 37.1867 17.6148 36.2517 19.1113 36.25H20.407V34.125H20.0112C16.8591 34.125 13.7069 34.1308 10.5556 34.125C9.46318 34.125 8.67576 33.6033 8.20665 32.6175C8.12523 32.4161 8.05622 32.2099 8 32V14C8.0125 13.9833 8.03083 13.9692 8.03583 13.9508C8.42329 12.53 9.2782 11.875 10.7497 11.875H24.9249C25.0232 11.665 25.0641 11.465 25.1832 11.3408C25.8031 10.6958 26.4381 10.0642 27.0788 9.43833C27.3463 9.1775 27.6663 9.18417 27.9488 9.425C28.0321 9.49167 28.0987 9.56917 28.1721 9.6425C28.622 10.0925 28.6045 10.0308 29.222 9.8575C29.8219 9.69083 30.0002 9.37 29.9127 8.79667C29.8561 8.42583 30.0219 8.15167 30.3727 8H33.3724C33.7215 8.15167 33.8623 8.42167 33.839 8.79583C33.823 8.99283 33.8249 9.19086 33.8448 9.3875C33.8614 9.48802 33.9206 9.57645 34.0073 9.63C34.3648 9.79667 34.7331 9.93083 35.1738 10.1075C35.3205 9.94083 35.4846 9.74167 35.6663 9.5575C36.0829 9.1325 36.3745 9.13667 36.8037 9.56417C37.3486 10.1075 37.8924 10.6514 38.4352 11.1958C38.8693 11.6317 38.8651 11.9133 38.4235 12.3583C38.2569 12.525 37.9952 12.6808 37.9535 12.8783C37.9119 13.0758 38.0985 13.3092 38.1877 13.5267C38.446 14.1583 38.4468 14.17 39.1418 14.1558C39.5309 14.1475 39.8384 14.2392 40 14.625V17.625C39.8475 17.9742 39.5767 18.1158 39.2018 18.0917C39.0048 18.0753 38.8067 18.0772 38.6101 18.0975C38.5084 18.1148 38.4192 18.1757 38.366 18.2642C38.1994 18.6217 38.0644 18.99 37.8894 19.4225C38.0952 19.61 38.3368 19.8083 38.556 20.0325C38.8268 20.3133 38.8201 20.6333 38.5668 20.9258C38.5352 20.9674 38.4985 21.0049 38.4577 21.0375C38.1602 21.2425 38.1102 21.5275 38.1119 21.8708C38.1244 25.0458 38.1194 28.2208 38.1185 31.395C38.1185 33.0817 37.0786 34.1242 35.398 34.125H25.7007V36.25C26.2139 36.25 26.7114 36.2425 27.208 36.25C28.2819 36.2547 29.1975 37.0298 29.3794 38.0883C29.4386 38.4333 29.4053 38.7933 29.4361 39.145C29.4703 39.5317 29.3311 39.8117 28.9978 40ZM9.2657 28.9425H32.1408C32.245 28.9425 32.3491 28.9383 32.4533 28.9425C32.8316 28.9608 33.1041 29.22 33.1082 29.5617C33.1124 29.9033 32.8324 30.1783 32.435 30.1908C32.3316 30.1908 32.2266 30.1908 32.1233 30.1908H9.24987C9.24987 30.6717 9.24987 31.1075 9.24987 31.5442C9.25487 32.3483 9.77565 32.8725 10.5831 32.8725C18.8933 32.8725 27.2036 32.8725 35.5138 32.8725C36.3345 32.8725 36.8587 32.3492 36.8603 31.5217C36.8637 28.6578 36.8637 25.7936 36.8603 22.9292C36.8558 22.8487 36.8469 22.7686 36.8337 22.6892C36.2654 23.1242 36.0729 23.1125 35.5838 22.6117C35.4255 22.445 35.2913 22.2625 35.1463 22.0867C35.0083 22.1774 34.8624 22.2558 34.7106 22.3208C34.4331 22.4367 34.044 22.4733 33.9048 22.68C33.7582 22.9008 33.8515 23.2792 33.834 23.5892C33.8115 24.0125 33.584 24.2433 33.1615 24.2458C32.2972 24.2525 31.4328 24.2525 30.5685 24.2458C30.1652 24.2458 29.9335 24.0108 29.9127 23.6058C29.9002 23.3558 29.9227 23.1058 29.9011 22.8558C29.8883 22.7537 29.8313 22.6623 29.7452 22.6058C29.3878 22.4392 29.0178 22.305 28.5904 22.1325C28.417 22.3225 28.2287 22.5492 28.0221 22.75C27.6805 23.0883 27.3555 23.0875 27.0164 22.75C26.4231 22.165 25.8337 21.5761 25.2482 20.9833C24.8991 20.63 24.9016 20.3108 25.2632 19.9558C25.4682 19.7542 25.6982 19.5775 25.8715 19.4283C25.6898 18.975 25.5382 18.6325 25.4157 18.2792C25.359 18.1125 25.269 18.0792 25.1157 18.0842C24.8766 18.0925 24.6366 18.0933 24.3975 18.0842C23.99 18.065 23.755 17.8342 23.7509 17.435C23.7431 16.56 23.7431 15.6853 23.7509 14.8108C23.7509 14.4233 23.985 14.1883 24.3691 14.1658C24.6283 14.1508 24.8899 14.1658 25.1499 14.1542C25.2265 14.1492 25.3432 14.1025 25.369 14.0433C25.4973 13.7517 25.6015 13.4483 25.724 13.1267H10.6722C9.74232 13.125 9.24987 13.6192 9.24987 14.5525V25.9375H9.624C11.0616 25.9375 12.4987 25.9375 13.9352 25.9375C14.3835 25.9375 14.6518 26.1967 14.6351 26.5933C14.6193 26.9567 14.3568 27.1833 13.9327 27.185C12.4851 27.185 11.0377 27.185 9.59067 27.185H9.2657V28.9425ZM32.5899 23C32.5899 22.7017 32.5824 22.4425 32.5899 22.1833C32.6024 21.85 32.7841 21.6692 33.0957 21.5525C33.6873 21.3317 34.2689 21.085 34.8455 20.8283C35.1622 20.6867 35.418 20.6975 35.6713 20.9458C35.8496 21.12 36.0104 21.3117 36.1646 21.4808C36.527 21.1175 36.8562 20.7892 37.2353 20.41C37.0761 20.2708 36.8887 20.1233 36.7203 19.9558C36.4279 19.665 36.427 19.4283 36.6012 19.0558C36.8512 18.5117 37.0861 17.9558 37.2936 17.3892C37.4328 17.0108 37.5844 16.8525 37.9852 16.8392C38.2302 16.8308 38.476 16.8392 38.7443 16.8392V15.4092C38.4677 15.4092 38.2294 15.4158 37.9944 15.4092C37.5944 15.3958 37.4344 15.235 37.2986 14.8642C37.092 14.3 36.8645 13.7425 36.6095 13.1975C36.4287 12.8092 36.4295 12.585 36.742 12.2742C36.9037 12.1133 37.082 11.9708 37.2828 11.7942C36.9678 11.4867 36.6995 11.225 36.4329 10.9608C36.367 10.8958 36.2979 10.835 36.1904 10.735C36.0237 10.9233 35.8679 11.1075 35.6988 11.2758C35.4171 11.555 35.178 11.5583 34.823 11.395C34.2689 11.145 33.704 10.905 33.1307 10.6933C32.7633 10.5575 32.6016 10.395 32.5891 9.99417C32.5816 9.75667 32.5891 9.51917 32.5891 9.26917H31.1576C31.1576 9.51917 31.1626 9.75 31.1576 9.97833C31.1459 10.4 30.9909 10.5558 30.6018 10.6983C30.0385 10.9042 29.4828 11.1383 28.9353 11.3917C28.5679 11.5583 28.3279 11.5583 28.0346 11.2667C27.8679 11.1 27.7079 10.925 27.5738 10.7833L26.5322 11.8333C26.6856 11.975 26.8655 12.1317 27.0322 12.3017C27.3063 12.5792 27.3105 12.8258 27.1488 13.1783C26.8947 13.7333 26.6614 14.2992 26.4472 14.8717C26.3148 15.2267 26.1548 15.3883 25.7731 15.4033C25.5232 15.4133 25.2782 15.4033 25.0232 15.4033V16.8342C25.1724 16.8342 25.2965 16.8342 25.4207 16.8342C25.5448 16.8342 25.6707 16.8292 25.7956 16.8342C26.1589 16.855 26.3198 17.0142 26.4489 17.3533C26.6711 17.9333 26.91 18.5067 27.1655 19.0733C27.3147 19.4067 27.3072 19.6633 27.0464 19.925C26.8714 20.1 26.6772 20.2583 26.4631 20.45C26.7872 20.7658 27.0622 21.0333 27.3388 21.3008C27.3971 21.3575 27.4605 21.41 27.5596 21.4975C27.7354 21.305 27.8929 21.1133 28.0737 20.9383C28.3362 20.6808 28.592 20.6758 28.9262 20.8292C29.4819 21.0792 30.0452 21.3217 30.6168 21.5358C30.9909 21.675 31.1459 21.83 31.1584 22.2342C31.1668 22.4792 31.1584 22.7242 31.1584 22.9917H32.5916L32.5899 23ZM28.1504 38.735C28.2562 38.01 27.8254 37.5025 27.1055 37.5008C24.6902 37.5008 22.2738 37.5008 19.8563 37.5008C19.5338 37.5008 19.2105 37.49 18.888 37.505C18.5891 37.5128 18.3105 37.6579 18.1327 37.8983C17.955 38.1388 17.898 38.4478 17.9781 38.7358L28.1504 38.735ZM24.41 36.235V34.1517H21.7011V36.235H24.41Z" fill="#F4F9EC"/>
<path d="M21.4986 24.1033C21.2136 23.9591 20.9911 23.8533 20.777 23.7366C20.4387 23.5491 19.9171 23.8333 19.9112 24.2149C19.8971 25.1783 19.7954 25.2774 18.8238 25.2774C18.3139 25.2774 17.804 25.2824 17.294 25.2774C16.7691 25.2708 16.5591 25.0533 16.5541 24.5316C16.5541 24.4799 16.5541 24.4283 16.5541 24.3758C16.5672 24.0205 16.3197 23.7087 15.9708 23.6408C15.9009 23.6358 15.8312 23.653 15.7717 23.6899C15.6333 23.7608 15.5025 23.8483 15.365 23.9208C14.9959 24.1166 14.6618 24.0374 14.4485 23.6849C14.103 23.1044 13.7652 22.5191 13.4352 21.9291C13.2219 21.5466 13.3178 21.2374 13.696 21.0033C13.7402 20.9758 13.7869 20.9516 13.8319 20.9258C14.236 20.6941 14.3277 20.5016 14.2318 20.0524C14.2099 19.9874 14.1668 19.9316 14.1093 19.8941C14.0137 19.8316 13.915 19.7741 13.8135 19.7216C13.2736 19.4099 13.1978 19.1333 13.5044 18.5991C13.8002 18.0849 14.0943 17.5708 14.3935 17.0591C14.6651 16.5941 14.9659 16.5141 15.4317 16.7741C15.4775 16.7999 15.5209 16.8274 15.5659 16.8574C15.8672 17.042 16.2577 16.9822 16.4899 16.7158C16.5253 16.6673 16.5448 16.6091 16.5458 16.5491C16.5541 16.4358 16.5458 16.3208 16.5458 16.2066C16.5458 15.5774 16.7407 15.3824 17.3632 15.3816C17.9564 15.3816 18.5497 15.3816 19.143 15.3816C19.6729 15.3816 19.8929 15.6066 19.9037 16.1449C19.9037 16.1966 19.9037 16.2491 19.9037 16.3008C19.9037 16.6416 20.177 16.9824 20.5003 17.0291C20.5707 17.0257 20.6386 17.0023 20.6962 16.9616C20.8428 16.8833 20.9811 16.7899 21.1294 16.7116C21.4627 16.5449 21.7827 16.6199 21.9719 16.9333C22.3379 17.5383 22.6918 18.1494 23.0334 18.7666C23.2109 19.0883 23.1167 19.4041 22.8143 19.6108C22.7543 19.6524 22.6901 19.6874 22.6268 19.7241C22.2102 19.9666 22.1268 20.1258 22.221 20.5908C22.2586 20.6825 22.3278 20.7579 22.416 20.8033C23.2684 21.3233 23.2984 21.4324 22.8001 22.2966C22.541 22.7466 22.3002 23.2083 22.0119 23.6416C21.8994 23.8224 21.6861 23.9408 21.4986 24.1033ZM18.6472 24.0074C18.653 23.8891 18.6597 23.8074 18.6614 23.7249C18.6714 23.1949 18.7505 23.0841 19.2321 22.8816C19.413 22.8049 19.6188 22.7383 19.7521 22.6066C20.207 22.1566 20.6687 22.1333 21.1686 22.5083C21.1803 22.5166 21.2069 22.5083 21.2453 22.5024L21.6419 21.8116C21.5652 21.758 21.4853 21.709 21.4027 21.6649C20.9861 21.4774 20.852 21.1599 20.9411 20.7224C20.982 20.571 20.993 20.4131 20.9736 20.2574C20.8453 19.6224 20.8903 19.0816 21.6611 18.8691L21.2144 18.1099L20.9645 18.2483C20.4878 18.5166 20.3662 18.5041 19.9254 18.1649C19.7937 18.0641 19.6604 17.9391 19.5088 17.8966C18.8805 17.7199 18.558 17.3458 18.6372 16.6733C18.6372 16.6649 18.6264 16.6558 18.6155 16.6399H17.8006C17.8006 16.7708 17.8006 16.8833 17.8006 16.9958C17.8131 17.3641 17.6415 17.5899 17.3007 17.7458C16.9908 17.8895 16.6948 18.0617 16.4166 18.2599C16.1466 18.4491 15.8925 18.4908 15.6059 18.3199C15.4859 18.2483 15.3559 18.1866 15.2251 18.1141L14.8084 18.8441C14.8836 18.8962 14.9615 18.9443 15.0417 18.9883C15.4467 19.1783 15.5917 19.4699 15.51 19.9258C15.4567 20.2258 15.4917 20.5483 15.5259 20.8566C15.56 21.1649 15.4684 21.4066 15.2009 21.5733C15.0717 21.6566 14.9418 21.7316 14.8026 21.8158L15.2334 22.5366C15.3284 22.4874 15.3934 22.4533 15.4559 22.4216C15.9483 22.1424 16.0833 22.1549 16.5241 22.4874C16.6807 22.6058 16.8441 22.7433 17.024 22.7941C17.6265 22.9608 17.8756 23.3424 17.804 23.9524C17.804 23.9674 17.8248 23.9858 17.8523 24.0283C18.0114 24.0283 18.1856 24.0283 18.3622 24.0283C18.4539 24.0249 18.5355 24.0158 18.6464 24.0074H18.6472Z" fill="#F4F9EC"/>
<path d="M34.3664 29.5482C34.3763 29.2088 34.6568 28.9402 34.9963 28.9449C35.3349 28.9603 35.603 29.2368 35.6079 29.5757C35.6029 29.7441 35.531 29.9035 35.408 30.0187C35.2851 30.1338 35.1213 30.1951 34.953 30.1891C34.7899 30.1828 34.6361 30.1115 34.5259 29.9911C34.4157 29.8707 34.3582 29.7112 34.3664 29.5482Z" fill="#F4F9EC"/>
<path d="M17.1191 26.5742C17.1066 26.9127 16.8303 27.1817 16.4916 27.1851C16.2692 27.1809 16.066 27.0584 15.9584 26.8637C15.8508 26.669 15.8553 26.4317 15.9701 26.2412C16.0849 26.0507 16.2926 25.9359 16.5149 25.9401C16.8536 25.9557 17.1199 26.2352 17.1191 26.5742Z" fill="#F4F9EC"/>
<path d="M23.6808 31.4393C23.6726 31.7872 23.3863 32.0638 23.0384 32.0601C22.6933 32.05 22.4217 31.7619 22.4318 31.4168C22.4419 31.0716 22.7299 30.8 23.0751 30.8101C23.412 30.8256 23.6781 31.1019 23.6808 31.4393Z" fill="#F4F9EC"/>
<path d="M31.8642 12.25C33.4314 12.2467 34.8463 13.1878 35.4491 14.6346C36.0518 16.0814 35.7238 17.7489 34.6179 18.8594C33.5119 19.97 31.846 20.3049 30.3969 19.708C28.9478 19.1111 28.001 17.6999 27.9979 16.1325C28.0002 13.9954 29.7273 12.261 31.8642 12.25ZM34.4973 16.115C34.4913 14.6661 33.3122 13.4962 31.8634 13.5017C30.4146 13.5072 29.2444 14.6861 29.2495 16.135C29.2546 17.584 30.4329 18.7546 31.8817 18.75C33.3305 18.7422 34.5 17.564 34.4973 16.115Z" fill="#F4F9EC"/>
<path d="M18.2414 19.7009C18.5795 19.7167 18.8472 19.9925 18.853 20.3309C18.8498 20.4995 18.7786 20.6596 18.6556 20.7748C18.5325 20.89 18.3681 20.9505 18.1997 20.9426C18.0371 20.9375 17.8835 20.8669 17.7737 20.7469C17.6639 20.6268 17.6072 20.4675 17.6165 20.3051C17.6268 19.9677 17.9039 19.6999 18.2414 19.7009Z" fill="#F4F9EC"/>
</g>
<defs>
<clipPath id="clip0_16_46608">
<rect width="32" height="32" fill="white" transform="translate(8 8)"/>
</clipPath>
</defs>
</svg>
